<svg width="32" height="32" viewBox="0 0 32 32" fill="none" xmlns="http://www.w3.org/2000/svg">
<rect width="32" height="32" rx="16" fill="#D1FADF"/>
<path d="M20.4706 13.2222V11.4444C20.4706 8.98985 18.4954 7 16.0588 7C13.6223 7 11.6471 8.98985 11.6471 11.4444V13.2222M16.0588 17.2222V19M13.2353 23H18.8824C20.3648 23 21.1061 23 21.6723 22.7094C22.1704 22.4537 22.5754 22.0457 22.8291 21.544C23.1176 20.9735 23.1176 20.2268 23.1176 18.7333V17.4889C23.1176 15.9954 23.1176 15.2487 22.8291 14.6782C22.5754 14.1765 22.1704 13.7685 21.6723 13.5129C21.1061 13.2222 20.3648 13.2222 18.8824 13.2222H13.2353C11.7528 13.2222 11.0116 13.2222 10.4453 13.5129C9.94724 13.7685 9.54229 14.1765 9.28851 14.6782C9 15.2487 9 15.9954 9 17.4889V18.7333C9 20.2268 9 20.9735 9.28851 21.544C9.54229 22.0457 9.94724 22.4537 10.4453 22.7094C11.0116 23 11.7528 23 13.2353 23Z" stroke="#12B76A" stroke-width="2" stroke-linecap="round" stroke-linejoin="round"/>
</svg>
