<svg width="56" height="56" viewBox="0 0 56 56" fill="none" xmlns="http://www.w3.org/2000/svg">
<rect x="4" y="4" width="48" height="48" rx="24" fill="#F4EBFF"/>
<path d="M38 37V35C38 33.1362 36.7252 31.5701 35 31.126M31.5 19.2908C32.9659 19.8841 34 21.3213 34 23C34 24.6787 32.9659 26.1159 31.5 26.7092M33 37C33 35.1362 33 34.2044 32.6955 33.4693C32.2895 32.4892 31.5108 31.7105 30.5307 31.3045C29.7956 31 28.8638 31 27 31H24C22.1362 31 21.2044 31 20.4693 31.3045C19.4892 31.7105 18.7105 32.4892 18.3045 33.4693C18 34.2044 18 35.1362 18 37M29.5 23C29.5 25.2091 27.7091 27 25.5 27C23.2909 27 21.5 25.2091 21.5 23C21.5 20.7909 23.2909 19 25.5 19C27.7091 19 29.5 20.7909 29.5 23Z" stroke="#7F56D9" stroke-width="2" stroke-linecap="round" stroke-linejoin="round"/>
<rect x="4" y="4" width="48" height="48" rx="24" stroke="#F9F5FF" stroke-width="8"/>
</svg>
