<svg
    width="82"
    height="39"
    viewBox="0 0 166 69"
    fill="none"
    xmlns="http://www.w3.org/2000/svg"
    >
    <path
        fill-rule="evenodd"
        clip-rule="evenodd"
        d="M9.536 67.104C11.2427 67.7867 13.056 68.128 14.976 68.128C16.8533 68.128 18.688 67.7013 20.48 66.848C22.272 65.9947 23.872 64.8 25.28 63.264C26.7307 61.6853 27.8827 59.808 28.736 57.632C29.5893 55.456 30.016 53.0453 30.016 50.4C30.016 46.7733 29.3333 43.7013 27.968 41.184C26.6027 38.624 24.7893 36.6827 22.528 35.36C20.3093 33.9947 17.92 33.312 15.36 33.312C13.0987 33.312 11.136 33.7813 9.472 34.72C7.85067 35.616 6.61334 36.5547 5.76 37.536V20H0V67.36H5.376V64.608C6.48533 65.5467 7.872 66.3787 9.536 67.104ZM18.944 61.472C17.3653 62.496 15.5307 63.008 13.44 63.008C11.9467 63.008 10.5387 62.7733 9.216 62.304C7.89333 61.8347 6.74133 61.216 5.76 60.448V42.656C6.528 41.5893 7.63734 40.608 9.088 39.712C10.5813 38.7733 12.2453 38.304 14.08 38.304C15.9147 38.304 17.5787 38.7947 19.072 39.776C20.608 40.7573 21.824 42.1653 22.72 44C23.6587 45.8347 24.128 48.032 24.128 50.592C24.128 53.0667 23.6587 55.2427 22.72 57.12C21.824 58.9973 20.5653 60.448 18.944 61.472ZM42.8 67.04C44.3787 67.7653 46.1493 68.128 48.112 68.128C49.4773 68.128 50.7147 68 51.824 67.744C52.976 67.488 53.936 67.1893 54.704 66.848L53.296 62.176C52.7413 62.432 52.0587 62.6667 51.248 62.88C50.48 63.0507 49.6907 63.136 48.88 63.136C47.1733 63.136 45.8293 62.5813 44.848 61.472C43.9093 60.3627 43.44 58.656 43.44 56.352V20H37.68V56.928C37.68 59.5733 38.128 61.728 39.024 63.392C39.9627 65.056 41.2213 66.272 42.8 67.04ZM60.125 34.08V67.36H65.885V34.08H60.125ZM80.157 64.992C82.0343 67.0827 84.573 68.128 87.773 68.128C89.3517 68.128 90.8663 67.872 92.317 67.36C93.7677 66.8907 94.9197 66.4 95.773 65.888L94.173 61.28C93.3623 61.7493 92.4663 62.1547 91.485 62.496C90.5463 62.8373 89.5437 63.008 88.477 63.008C87.0263 63.008 85.7677 62.5173 84.701 61.536C83.677 60.5547 83.165 58.8267 83.165 56.352V40.288H92.381V35.296H83.165V24.8H78.749L77.533 35.296H71.645V40.288H77.405V55.904C77.405 59.8293 78.3223 62.8587 80.157 64.992ZM103.035 66.848C103.888 67.7013 104.891 68.128 106.043 68.128C107.28 68.128 108.304 67.744 109.115 66.976C109.925 66.1653 110.331 65.12 110.331 63.84C110.331 62.688 109.882 61.6853 108.987 60.832C108.133 59.9787 107.152 59.552 106.043 59.552C104.72 59.552 103.674 59.936 102.907 60.704C102.139 61.472 101.755 62.5173 101.755 63.84C101.755 64.992 102.181 65.9947 103.035 66.848ZM124.309 66.016C126.57 67.424 129.088 68.128 131.861 68.128C134.464 68.128 136.597 67.5733 138.261 66.464C139.968 65.312 141.312 64.0533 142.293 62.688C143.146 66.016 145.621 67.68 149.717 67.68L150.933 63.2C149.994 63.2 149.12 62.9653 148.309 62.496C147.541 61.984 147.157 60.9173 147.157 59.296V34.08H141.909V36.768C140.757 35.7867 139.392 34.976 137.813 34.336C136.277 33.6533 134.549 33.312 132.629 33.312C129.557 33.312 126.826 34.1013 124.437 35.68C122.09 37.216 120.234 39.3067 118.869 41.952C117.546 44.5973 116.885 47.584 116.885 50.912C116.885 54.4107 117.546 57.4613 118.869 60.064C120.234 62.624 122.048 64.608 124.309 66.016ZM137.749 61.856C136.298 62.624 134.762 63.008 133.141 63.008C131.178 63.008 129.408 62.496 127.829 61.472C126.25 60.4053 125.013 58.9547 124.117 57.12C123.221 55.2427 122.773 53.1093 122.773 50.72C122.773 48.2453 123.221 46.0907 124.117 44.256C125.013 42.3787 126.229 40.928 127.765 39.904C129.344 38.8373 131.157 38.304 133.205 38.304C134.741 38.304 136.192 38.56 137.557 39.072C138.965 39.5413 140.245 40.1813 141.397 40.992V58.848C140.416 60.0427 139.2 61.0453 137.749 61.856ZM158.625 27.168C159.436 27.9787 160.396 28.384 161.505 28.384C162.742 28.384 163.724 28.0213 164.449 27.296C165.174 26.528 165.537 25.5467 165.537 24.352C165.537 23.2427 165.132 22.304 164.321 21.536C163.553 20.7253 162.614 20.32 161.505 20.32C160.268 20.32 159.286 20.6827 158.561 21.408C157.836 22.1333 157.473 23.1147 157.473 24.352C157.473 25.4187 157.857 26.3573 158.625 27.168ZM158.625 34.08V67.36H164.385V34.08H158.625Z"
        fill="url(#paint0_radial_15_2)"
    />
    <path
        fill-rule="evenodd"
        clip-rule="evenodd"
        d="M50.2536 3.13829C58.2895 -0.566264 67.6983 -0.566523 75.7351 3.13996L72.3634 7.15819C66.3789 4.75576 59.6101 4.75562 53.6256 7.15691L50.2536 3.13829ZM47.5354 4.56599C45.875 5.55101 44.2935 6.70901 42.8185 8.03999C42.3919 8.42498 42.3835 9.07686 42.7961 9.47624L44.9896 11.5994C45.383 11.9806 46.0159 11.9887 46.4246 11.6231C47.7938 10.3994 49.2721 9.35489 50.8277 8.48958L47.5354 4.56599ZM75.1611 8.49125L78.4531 4.56803C80.1121 5.55256 81.6924 6.70987 83.1664 8.03999C83.5931 8.42498 83.6014 9.07686 83.1895 9.47624L80.996 11.5994C80.6026 11.98 79.9697 11.9887 79.561 11.6231C78.1927 10.4002 76.7154 9.3562 75.1611 8.49125ZM58.8925 24.36C58.8925 22.1506 60.7279 20.36 62.9925 20.36C65.2571 20.36 67.0925 22.1506 67.0925 24.36C67.0925 26.5694 65.2571 28.36 62.9925 28.36C60.7279 28.36 58.8925 26.5694 58.8925 24.36ZM64.4925 10.4156C68.6282 10.7213 72.6825 12.294 75.976 15.1356C76.4174 15.5162 76.4321 16.1787 76.0119 16.5825L73.8056 18.7069C73.4212 19.0775 72.8024 19.1019 72.393 18.7569C70.1093 16.8305 67.3377 15.7223 64.4925 15.4346V10.4156ZM61.4925 10.4156C57.3551 10.7217 53.3004 12.2957 50.0089 15.1356C49.5669 15.5169 49.5528 16.1787 49.9724 16.5825L52.1787 18.7069C52.5631 19.0769 53.1819 19.1019 53.5913 18.7569C55.8781 16.8283 58.6496 15.7215 61.4925 15.4344V10.4156Z"
        fill="url(#paint1_radial_15_2)"
    />
    <defs>
        <radialGradient
        id="paint0_radial_15_2"
        cx="0"
        cy="0"
        r="1"
        gradientUnits="userSpaceOnUse"
        gradientTransform="translate(-3.49999 69.4575) rotate(-11.8452) scale(174.721 157.646)"
        >
        <stop stop-color="#7000FF" />
        <stop offset="1" stop-color="#FF0094" />
        </radialGradient>
        <radialGradient
        id="paint1_radial_15_2"
        cx="0"
        cy="0"
        r="1"
        gradientUnits="userSpaceOnUse"
        gradientTransform="translate(41.6256 29.1334) rotate(-26.2272) scale(47.2138 84.0633)"
        >
        <stop stop-color="#7000FF" />
        <stop offset="1" stop-color="#FF0094" />
        </radialGradient>
    </defs>
</svg>