<svg width="16" height="16" viewBox="0 0 16 16" fill="none" xmlns="http://www.w3.org/2000/svg">
<path d="M1.33325 4.66666L6.77653 8.47695C7.21731 8.7855 7.4377 8.93977 7.67743 8.99953C7.88918 9.05231 8.11066 9.05231 8.32241 8.99953C8.56213 8.93977 8.78252 8.7855 9.2233 8.47695L14.6666 4.66666M4.53325 13.3333H11.4666C12.5867 13.3333 13.1467 13.3333 13.5746 13.1153C13.9509 12.9236 14.2569 12.6176 14.4486 12.2413C14.6666 11.8135 14.6666 11.2534 14.6666 10.1333V5.86666C14.6666 4.74655 14.6666 4.1865 14.4486 3.75868C14.2569 3.38235 13.9509 3.07639 13.5746 2.88464C13.1467 2.66666 12.5867 2.66666 11.4666 2.66666H4.53325C3.41315 2.66666 2.85309 2.66666 2.42527 2.88464C2.04895 3.07639 1.74299 3.38235 1.55124 3.75868C1.33325 4.1865 1.33325 4.74655 1.33325 5.86666V10.1333C1.33325 11.2534 1.33325 11.8135 1.55124 12.2413C1.74299 12.6176 2.04895 12.9236 2.42527 13.1153C2.85309 13.3333 3.41315 13.3333 4.53325 13.3333Z" stroke="#667085" stroke-width="1.33333" stroke-linecap="round" stroke-linejoin="round"/>
</svg>
